<svg data-v-fde0c5aa="" xmlns="http://www.w3.org/2000/svg" viewBox="0 0 300 300" class="iconLeftSlogan"><!----><defs data-v-fde0c5aa=""><!----></defs><rect data-v-fde0c5aa="" fill="transparent" x="0" y="0" width="300px" height="300px" class="logo-background-square"></rect><defs data-v-fde0c5aa=""><!----></defs><g data-v-fde0c5aa="" id="bb368627-8c5e-443d-9a2b-9f3c8e5929c0" fill="#000000" transform="matrix(1.8624961446499213,0,0,1.8624961446499213,100.83108284858518,127.15808945120335)"><path d="M4.42 2.69L4.42 2.69Q3.88 2.63 3.57 2.69Q3.26 2.76 3.10 2.93Q2.94 3.11 2.90 3.39Q2.86 3.67 2.86 4.02L2.86 4.02L2.86 4.07L4.20 4.07L4.05 5.14L2.86 5.14L2.86 10.50L1.54 10.50L1.54 5.14L0.29 5.14L0.29 4.07L1.54 4.07L1.54 4.02Q1.54 3.53 1.63 3.16Q1.72 2.80 1.87 2.53Q2.02 2.27 2.21 2.09Q2.41 1.92 2.60 1.81L2.60 1.81Q3.07 1.55 3.68 1.54L3.68 1.54Q3.88 1.54 4.03 1.55Q4.17 1.57 4.28 1.60L4.28 1.60L4.49 1.64L4.42 2.69ZM8.30 9.52L8.30 10.50Q8.08 10.58 7.80 10.63Q7.52 10.67 7.28 10.67L7.28 10.67Q6.57 10.67 6.19 10.25Q5.81 9.83 5.81 9.03L5.81 9.03L5.81 1.62L7.13 1.62L7.13 9.00Q7.13 9.30 7.23 9.44Q7.34 9.59 7.59 9.59L7.59 9.59Q7.73 9.59 7.96 9.57Q8.19 9.55 8.30 9.52L8.30 9.52ZM11.66 3.36L11.66 10.50L10.35 10.50L10.35 3.36L11.66 3.36ZM11.84 1.65L11.84 1.65Q11.84 2.02 11.59 2.27Q11.34 2.52 10.99 2.52L10.99 2.52Q10.63 2.52 10.37 2.27Q10.12 2.02 10.12 1.65L10.12 1.65Q10.12 1.30 10.37 1.05Q10.63 0.80 10.99 0.80L10.99 0.80Q11.34 0.80 11.59 1.05Q11.84 1.30 11.84 1.65ZM19.26 3.36L20.40 3.36L20.40 9.48Q20.40 10.23 20.21 10.88Q20.02 11.52 19.58 11.99Q19.14 12.46 18.40 12.73Q17.67 12.99 16.58 12.99L16.58 12.99Q16.13 12.99 15.73 12.91Q15.33 12.84 15.01 12.73L15.01 12.73Q14.64 12.60 14.32 12.45L14.32 12.45L14.14 11.28Q14.43 11.47 14.81 11.61L14.81 11.61Q15.13 11.73 15.58 11.83Q16.03 11.93 16.58 11.93L16.58 11.93Q17.51 11.93 18.02 11.67Q18.54 11.41 18.77 11.03Q19.01 10.64 19.05 10.19Q19.08 9.73 19.08 9.35L19.08 9.35Q18.63 9.95 18.08 10.23Q17.53 10.50 16.80 10.50L16.80 10.50Q16.18 10.50 15.61 10.27Q15.04 10.04 14.59 9.58Q14.14 9.11 13.87 8.44Q13.61 7.76 13.61 6.85L13.61 6.85Q13.61 5.95 13.87 5.27Q14.14 4.59 14.59 4.13Q15.04 3.67 15.61 3.43Q16.18 3.19 16.80 3.19L16.80 3.19Q17.50 3.19 17.94 3.38Q18.38 3.57 18.63 3.81L18.63 3.81Q18.93 4.07 19.08 4.42L19.08 4.42L19.26 3.36ZM17.04 9.44L17.04 9.44Q17.50 9.44 17.88 9.23Q18.26 9.03 18.52 8.68Q18.79 8.33 18.94 7.85Q19.08 7.38 19.08 6.85L19.08 6.85Q19.08 6.31 18.94 5.84Q18.79 5.38 18.52 5.02Q18.26 4.66 17.88 4.46Q17.50 4.26 17.04 4.26L17.04 4.26Q16.59 4.26 16.21 4.46Q15.83 4.66 15.57 5.02Q15.30 5.38 15.16 5.84Q15.01 6.31 15.01 6.85L15.01 6.85Q15.01 7.38 15.16 7.85Q15.30 8.33 15.57 8.68Q15.83 9.03 16.21 9.23Q16.59 9.44 17.04 9.44ZM26.28 3.19L26.28 3.19Q27.68 3.19 28.32 4.02Q28.97 4.84 28.97 6.37L28.97 6.37L28.97 10.50L27.64 10.50L27.64 6.73Q27.64 5.46 27.31 4.86Q26.99 4.26 26.18 4.26L26.18 4.26Q25.62 4.26 25.21 4.47Q24.79 4.68 24.51 5.06Q24.23 5.45 24.09 5.99Q23.95 6.52 23.95 7.18L23.95 7.18L23.95 10.50L22.64 10.50L22.64 1.62L23.95 1.62L23.95 4.49Q24.29 3.92 24.93 3.56Q25.58 3.19 26.28 3.19ZM35.07 5.12L33.18 5.12L33.18 8.46Q33.18 9.59 34.15 9.59L34.15 9.59Q34.55 9.59 34.97 9.38L34.97 9.38L34.97 10.40Q34.40 10.67 33.75 10.67L33.75 10.67Q32.83 10.67 32.32 10.14Q31.81 9.62 31.81 8.60L31.81 8.60L31.81 5.12L30.53 5.12L30.53 4.05L31.81 4.05L31.81 1.95L33.18 1.62L33.18 4.05L35.07 4.05L35.07 5.12ZM44.38 3.19L44.38 3.19Q45.09 3.19 45.66 3.49Q46.23 3.79 46.62 4.31Q47.01 4.83 47.22 5.51Q47.42 6.19 47.42 6.94L47.42 6.94Q47.42 7.70 47.22 8.38Q47.01 9.06 46.62 9.56Q46.23 10.07 45.66 10.37Q45.09 10.67 44.38 10.67L44.38 10.67Q43.69 10.67 43.23 10.49Q42.76 10.30 42.48 10.08L42.48 10.08Q42.14 9.83 41.94 9.48L41.94 9.48L41.94 9.49L41.66 10.50L40.63 10.50L40.63 1.62L41.94 1.62L41.94 4.28Q42.38 3.71 43.03 3.45Q43.68 3.19 44.38 3.19ZM44.09 9.60L44.09 9.60Q44.48 9.60 44.83 9.44Q45.18 9.28 45.44 8.95Q45.71 8.62 45.86 8.12Q46.02 7.62 46.02 6.94L46.02 6.94Q46.02 6.27 45.86 5.77Q45.71 5.26 45.44 4.93Q45.18 4.59 44.83 4.42Q44.48 4.26 44.09 4.26L44.09 4.26Q43.67 4.26 43.28 4.42Q42.90 4.59 42.60 4.93Q42.31 5.26 42.13 5.77Q41.94 6.27 41.94 6.94L41.94 6.94Q41.94 7.62 42.13 8.12Q42.31 8.62 42.60 8.95Q42.90 9.28 43.28 9.44Q43.67 9.60 44.09 9.60ZM52.32 3.19L52.32 3.19Q52.86 3.19 53.50 3.35Q54.14 3.51 54.68 3.93Q55.23 4.35 55.60 5.08Q55.97 5.81 55.97 6.94L55.97 6.94Q55.97 8.08 55.60 8.80Q55.23 9.52 54.68 9.93Q54.14 10.35 53.50 10.51Q52.86 10.67 52.32 10.67L52.32 10.67Q51.79 10.67 51.16 10.51Q50.53 10.35 49.98 9.93Q49.43 9.52 49.07 8.80Q48.71 8.08 48.71 6.94L48.71 6.94Q48.71 5.81 49.07 5.08Q49.43 4.35 49.98 3.93Q50.53 3.51 51.16 3.35Q51.79 3.19 52.32 3.19ZM52.32 9.60L52.32 9.60Q52.78 9.60 53.19 9.44Q53.61 9.28 53.91 8.95Q54.21 8.61 54.39 8.11Q54.57 7.62 54.57 6.94L54.57 6.94Q54.57 6.27 54.39 5.77Q54.21 5.26 53.91 4.93Q53.61 4.59 53.19 4.42Q52.78 4.26 52.32 4.26L52.32 4.26Q51.87 4.26 51.47 4.42Q51.07 4.59 50.77 4.93Q50.47 5.26 50.30 5.77Q50.12 6.27 50.12 6.94L50.12 6.94Q50.12 7.62 50.30 8.11Q50.47 8.61 50.77 8.95Q51.07 9.28 51.47 9.44Q51.87 9.60 52.32 9.60ZM60.87 3.19L60.87 3.19Q61.42 3.19 62.06 3.35Q62.69 3.51 63.24 3.93Q63.78 4.35 64.16 5.08Q64.53 5.81 64.53 6.94L64.53 6.94Q64.53 8.08 64.16 8.80Q63.78 9.52 63.24 9.93Q62.69 10.35 62.06 10.51Q61.42 10.67 60.87 10.67L60.87 10.67Q60.34 10.67 59.71 10.51Q59.08 10.35 58.53 9.93Q57.99 9.52 57.62 8.80Q57.26 8.08 57.26 6.94L57.26 6.94Q57.26 5.81 57.62 5.08Q57.99 4.35 58.53 3.93Q59.08 3.51 59.71 3.35Q60.34 3.19 60.87 3.19ZM60.87 9.60L60.87 9.60Q61.33 9.60 61.75 9.44Q62.16 9.28 62.46 8.95Q62.76 8.61 62.94 8.11Q63.13 7.62 63.13 6.94L63.13 6.94Q63.13 6.27 62.94 5.77Q62.76 5.26 62.46 4.93Q62.16 4.59 61.75 4.42Q61.33 4.26 60.87 4.26L60.87 4.26Q60.42 4.26 60.03 4.42Q59.63 4.59 59.33 4.93Q59.02 5.26 58.85 5.77Q58.67 6.27 58.67 6.94L58.67 6.94Q58.67 7.62 58.85 8.11Q59.02 8.61 59.33 8.95Q59.63 9.28 60.03 9.44Q60.42 9.60 60.87 9.60ZM72.18 3.36L69.68 6.52L72.28 10.50L70.66 10.50L68.68 7.21L67.61 7.21L67.61 10.50L66.29 10.50L66.29 1.62L67.61 1.62L67.61 5.81L68.68 5.81L70.67 3.36L72.18 3.36ZM77.04 10.67L77.04 10.67Q75.84 10.67 75.09 10.31Q74.34 9.95 73.92 9.39Q73.50 8.83 73.35 8.14Q73.19 7.45 73.19 6.78L73.19 6.78Q73.19 6.10 73.41 5.46Q73.63 4.82 74.04 4.31Q74.45 3.81 75.05 3.50Q75.66 3.19 76.44 3.19L76.44 3.19Q77.38 3.19 78.01 3.52Q78.64 3.85 79.02 4.38Q79.39 4.90 79.55 5.54Q79.70 6.17 79.70 6.78L79.70 6.78L79.70 7.22L74.59 7.22Q74.65 7.90 74.90 8.41L74.90 8.41Q75.01 8.64 75.18 8.86Q75.35 9.07 75.59 9.24Q75.84 9.41 76.16 9.51Q76.48 9.60 76.90 9.60L76.90 9.60Q77.35 9.60 77.75 9.50Q78.15 9.39 78.46 9.27L78.46 9.27Q78.82 9.11 79.13 8.92L79.13 8.92L79.14 10.12Q79.14 10.12 78.98 10.21Q78.82 10.30 78.54 10.40Q78.26 10.50 77.88 10.58Q77.49 10.67 77.04 10.67ZM74.59 6.24L78.30 6.24Q78.30 5.89 78.20 5.54Q78.09 5.18 77.87 4.89Q77.64 4.61 77.29 4.43Q76.94 4.26 76.44 4.26L76.44 4.26Q76.01 4.26 75.66 4.43Q75.32 4.61 75.08 4.89Q74.84 5.18 74.72 5.54Q74.59 5.89 74.59 6.24L74.59 6.24ZM85.46 3.30L85.46 4.47Q85.36 4.44 85.25 4.41L85.25 4.41Q85.15 4.38 85.03 4.36Q84.91 4.34 84.80 4.34L84.80 4.34Q84.20 4.34 83.80 4.61Q83.41 4.89 83.19 5.31Q82.96 5.73 82.87 6.24Q82.78 6.76 82.78 7.25L82.78 7.25L82.78 10.50L81.47 10.50L81.47 3.36L82.59 3.36L82.74 4.47Q82.94 4.12 83.17 3.84Q83.41 3.57 83.73 3.40Q84.06 3.23 84.48 3.20Q84.90 3.16 85.46 3.30L85.46 3.30Z"></path></g><defs data-v-fde0c5aa=""><linearGradient data-v-fde0c5aa="" gradientTransform="rotate(25)" id="efa390e4-25d5-4397-9e0b-b952e32ec047" x1="0%" y1="0%" x2="100%" y2="0%"><stop data-v-fde0c5aa="" offset="0%" stop-color="#920DE9" stop-opacity="1"></stop><stop data-v-fde0c5aa="" offset="100%" stop-color="#1536F1" stop-opacity="1"></stop></linearGradient></defs><g data-v-fde0c5aa="" id="33145084-7b6e-48fb-b726-9033262eb233" stroke="none" fill="url(#efa390e4-25d5-4397-9e0b-b952e32ec047)" transform="matrix(1.5116002115780778,0,0,1.5116002115780778,40,125.83858334833026)"><path d="M0 31.984h32v-32H0v32zm2-30h28v28H2v-28z"></path><path d="M6.439 16.831h8.959l-4.48-7.741zM16.602 13.331h8.959L21.082 5.59zM6.439 26.41h8.959l-4.48-7.741zM16.602 22.91h8.959l-4.479-7.741z"></path></g><defs data-v-fde0c5aa=""><!----></defs><g data-v-fde0c5aa="" id="f7b22d62-eaf8-456b-8a59-a99ab623ea79" fill="#000000" transform="matrix(0.742783269539882,0,0,0.742783269539882,100.50957820262529,160.46833910605605)"><path d="M1.16 1.36L3.35 1.36Q4.10 1.36 4.77 1.50Q5.43 1.65 5.93 1.99Q6.43 2.34 6.72 2.90Q7.01 3.46 7.01 4.30L7.01 4.30Q7.01 5.11 6.72 5.67Q6.43 6.23 5.94 6.58Q5.46 6.93 4.84 7.08Q4.21 7.24 3.56 7.24L3.56 7.24L2.56 7.24L2.56 10.50L1.16 10.50L1.16 1.36ZM2.56 5.99L3.44 5.99Q3.84 5.99 4.21 5.91Q4.59 5.82 4.89 5.63Q5.18 5.43 5.36 5.11Q5.53 4.79 5.53 4.30L5.53 4.30Q5.53 3.79 5.36 3.46Q5.18 3.14 4.88 2.95Q4.58 2.76 4.17 2.68Q3.77 2.60 3.32 2.60L3.32 2.60L2.56 2.60L2.56 5.99ZM13.78 9.27L13.78 10.50L8.64 10.50L8.64 1.34L10.04 1.34L10.04 9.27L13.78 9.27ZM23.38 10.50L22.04 10.50L21.01 8.15L16.60 8.15L15.58 10.50L14.22 10.50L18.05 1.36L19.53 1.36L23.38 10.50ZM18.75 2.69L17.09 6.97L20.51 6.97L18.75 2.69ZM31.91 1.36L31.91 10.50L30.14 10.50L26.18 3.11L26.18 10.50L24.78 10.50L24.78 1.36L26.71 1.36L30.51 8.55L30.51 1.36L31.91 1.36ZM35.85 6.38L35.85 6.38L35.85 9.27L39.33 9.27L39.33 10.50L34.45 10.50L34.45 1.36L39.31 1.36L39.10 2.60L35.85 2.60L35.85 5.14L38.95 5.14L38.95 6.38L35.85 6.38ZM46.47 2.24L45.95 3.46Q45.46 3.09 44.86 2.88Q44.27 2.67 43.71 2.67L43.71 2.67Q43.05 2.67 42.65 2.94Q42.25 3.21 42.25 3.79L42.25 3.79Q42.25 4.10 42.40 4.32Q42.55 4.54 42.79 4.70Q43.04 4.86 43.36 4.98Q43.68 5.10 44.04 5.22L44.04 5.22Q44.52 5.39 45.01 5.58Q45.50 5.77 45.90 6.08Q46.30 6.38 46.54 6.85Q46.79 7.32 46.79 8.02L46.79 8.02Q46.79 8.71 46.52 9.21Q46.26 9.70 45.82 10.03Q45.39 10.36 44.82 10.51Q44.25 10.67 43.65 10.67L43.65 10.67Q42.76 10.67 41.90 10.32Q41.05 9.98 40.43 9.34L40.43 9.34L40.96 8.18Q41.51 8.75 42.25 9.06Q42.99 9.37 43.71 9.37L43.71 9.37Q44.39 9.37 44.84 9.09Q45.29 8.81 45.30 8.18L45.30 8.18Q45.30 7.84 45.15 7.59Q45.00 7.35 44.73 7.17Q44.46 7 44.12 6.87Q43.78 6.73 43.43 6.61L43.43 6.61Q42.97 6.45 42.50 6.26Q42.03 6.06 41.65 5.76Q41.27 5.46 41.04 5.01Q40.81 4.56 40.81 3.91L40.81 3.91Q40.81 3.23 41.06 2.75Q41.31 2.27 41.73 1.96Q42.14 1.65 42.67 1.50Q43.20 1.36 43.78 1.36L43.78 1.36Q44.53 1.36 45.23 1.60Q45.93 1.83 46.47 2.24L46.47 2.24ZM63.17 1.34L63.17 1.34L64.67 1.34L61.67 10.50L59.82 10.50L58.09 2.59L56.45 10.50L54.54 10.50L51.59 1.34L53.07 1.34L55.50 9.10L57.09 1.34L59.18 1.34L60.84 9.10L63.17 1.34ZM65.94 1.36L67.34 1.36L67.34 10.50L65.94 10.50L65.94 1.36ZM68.74 1.36L75.73 1.36L75.73 2.60L72.91 2.60L72.91 10.50L71.51 10.50L71.51 2.60L68.74 2.60L68.74 1.36ZM82.81 1.36L84.22 1.36L84.22 10.50L82.81 10.50L82.81 6.69L78.60 6.69L78.60 10.50L77.20 10.50L77.20 1.36L78.60 1.36L78.60 5.46L82.81 5.46L82.81 1.36ZM90.71 1.19L90.71 1.19Q91.39 1.19 92.16 1.39Q92.93 1.60 93.58 2.12Q94.23 2.65 94.66 3.56Q95.09 4.48 95.09 5.91L95.09 5.91Q95.09 6.87 94.89 7.60Q94.70 8.33 94.36 8.86Q94.02 9.39 93.58 9.74Q93.14 10.08 92.65 10.29Q92.16 10.50 91.66 10.58Q91.15 10.67 90.71 10.67L90.71 10.67Q90.26 10.67 89.75 10.58Q89.24 10.50 88.75 10.29Q88.26 10.08 87.81 9.74Q87.36 9.39 87.02 8.86Q86.69 8.33 86.48 7.60Q86.28 6.87 86.28 5.91L86.28 5.91Q86.28 4.48 86.72 3.56Q87.15 2.65 87.81 2.12Q88.47 1.60 89.24 1.39Q90.02 1.19 90.71 1.19ZM90.71 9.42L90.71 9.42Q91.34 9.42 91.87 9.24Q92.40 9.06 92.79 8.64Q93.17 8.22 93.38 7.55Q93.59 6.87 93.59 5.89L93.59 5.89Q93.59 4.94 93.38 4.28Q93.17 3.63 92.79 3.21Q92.40 2.80 91.87 2.62Q91.34 2.44 90.71 2.44L90.71 2.44Q90.06 2.44 89.52 2.62Q88.98 2.80 88.60 3.21Q88.21 3.63 88.00 4.29Q87.78 4.96 87.78 5.91L87.78 5.91Q87.78 6.87 88.00 7.55Q88.21 8.22 88.60 8.64Q88.98 9.06 89.52 9.24Q90.06 9.42 90.71 9.42ZM97.10 7.21L97.10 7.21L97.10 1.34L98.50 1.34L98.50 7.17Q98.50 7.62 98.64 8.02Q98.77 8.43 99.05 8.74Q99.33 9.06 99.76 9.25Q100.18 9.44 100.77 9.44L100.77 9.44Q101.36 9.44 101.78 9.25Q102.20 9.06 102.47 8.74Q102.75 8.43 102.88 8.02Q103.01 7.62 103.01 7.17L103.01 7.17L103.01 1.34L104.41 1.34L104.41 7.21Q104.41 8.36 103.87 9.13Q103.32 9.90 102.49 10.28Q101.67 10.67 100.72 10.67Q99.76 10.67 98.95 10.28Q98.14 9.90 97.61 9.13Q97.08 8.36 97.10 7.21ZM105.83 1.36L112.81 1.36L112.81 2.60L110.00 2.60L110.00 10.50L108.60 10.50L108.60 2.60L105.83 2.60L105.83 1.36ZM118.02 1.36L120.20 1.36Q120.96 1.36 121.63 1.50Q122.29 1.65 122.79 1.99Q123.28 2.34 123.58 2.90Q123.87 3.46 123.87 4.30L123.87 4.30Q123.87 5.11 123.58 5.67Q123.28 6.23 122.80 6.58Q122.32 6.93 121.70 7.08Q121.07 7.24 120.41 7.24L120.41 7.24L119.42 7.24L119.42 10.50L118.02 10.50L118.02 1.36ZM119.42 5.99L120.30 5.99Q120.69 5.99 121.07 5.91Q121.45 5.82 121.74 5.63Q122.04 5.43 122.21 5.11Q122.39 4.79 122.39 4.30L122.39 4.30Q122.39 3.79 122.21 3.46Q122.04 3.14 121.74 2.95Q121.44 2.76 121.03 2.68Q120.62 2.60 120.18 2.60L120.18 2.60L119.42 2.60L119.42 5.99ZM125.51 1.36L126.91 1.36L126.91 10.50L125.51 10.50L125.51 1.36ZM130.87 6.38L130.87 6.38L130.87 9.27L134.34 9.27L134.34 10.50L129.47 10.50L129.47 1.36L134.33 1.36L134.12 2.60L130.87 2.60L130.87 5.14L133.97 5.14L133.97 6.38L130.87 6.38ZM140.45 1.19L140.45 1.19Q140.94 1.19 141.39 1.25Q141.85 1.32 142.18 1.39L142.18 1.39Q142.58 1.47 142.91 1.58L142.91 1.58L142.91 2.79Q142.32 2.63 141.70 2.54Q141.08 2.45 140.48 2.47Q139.87 2.49 139.33 2.67Q138.78 2.86 138.37 3.25Q137.96 3.65 137.72 4.30Q137.48 4.96 137.48 5.94L137.48 5.94Q137.48 6.92 137.72 7.57Q137.96 8.23 138.37 8.63Q138.78 9.03 139.33 9.21Q139.87 9.39 140.48 9.41Q141.08 9.44 141.70 9.34Q142.32 9.24 142.91 9.09L142.91 9.09L142.91 10.23Q142.58 10.36 142.18 10.46L142.18 10.46Q141.85 10.54 141.39 10.61Q140.94 10.67 140.45 10.67L140.45 10.67Q139.78 10.67 139.01 10.46Q138.24 10.26 137.58 9.74Q136.93 9.21 136.51 8.29Q136.08 7.38 136.08 5.94L136.08 5.94Q136.08 4.98 136.28 4.26Q136.47 3.53 136.81 3.00Q137.14 2.48 137.59 2.13Q138.04 1.78 138.52 1.57Q139.01 1.36 139.50 1.27Q140 1.19 140.45 1.19ZM146.06 6.38L146.06 6.38L146.06 9.27L149.53 9.27L149.53 10.50L144.66 10.50L144.66 1.36L149.52 1.36L149.31 2.60L146.06 2.60L146.06 5.14L149.16 5.14L149.16 6.38L146.06 6.38ZM156.67 2.24L156.16 3.46Q155.67 3.09 155.07 2.88Q154.48 2.67 153.92 2.67L153.92 2.67Q153.26 2.67 152.86 2.94Q152.46 3.21 152.46 3.79L152.46 3.79Q152.46 4.10 152.61 4.32Q152.75 4.54 153.00 4.70Q153.24 4.86 153.57 4.98Q153.89 5.10 154.25 5.22L154.25 5.22Q154.73 5.39 155.22 5.58Q155.71 5.77 156.11 6.08Q156.51 6.38 156.75 6.85Q157.00 7.32 157.00 8.02L157.00 8.02Q157.00 8.71 156.73 9.21Q156.46 9.70 156.03 10.03Q155.60 10.36 155.03 10.51Q154.46 10.67 153.86 10.67L153.86 10.67Q152.96 10.67 152.11 10.32Q151.26 9.98 150.64 9.34L150.64 9.34L151.17 8.18Q151.72 8.75 152.46 9.06Q153.20 9.37 153.92 9.37L153.92 9.37Q154.60 9.37 155.05 9.09Q155.50 8.81 155.51 8.18L155.51 8.18Q155.51 7.84 155.36 7.59Q155.20 7.35 154.94 7.17Q154.67 7 154.33 6.87Q153.99 6.73 153.64 6.61L153.64 6.61Q153.17 6.45 152.70 6.26Q152.24 6.06 151.86 5.76Q151.48 5.46 151.25 5.01Q151.02 4.56 151.02 3.91L151.02 3.91Q151.02 3.23 151.27 2.75Q151.52 2.27 151.94 1.96Q152.35 1.65 152.88 1.50Q153.41 1.36 153.99 1.36L153.99 1.36Q154.74 1.36 155.44 1.60Q156.14 1.83 156.67 2.24L156.67 2.24ZM163.03 1.36L165.28 1.36L168.08 8.85L170.72 1.36L172.97 1.36L170.72 1.36L172.97 1.36L172.97 10.50L171.57 10.50L171.57 2.73L170.23 6.62Q169.64 8.33 168.87 10.50L168.87 10.50L167.29 10.50L164.43 2.73L164.43 10.50L163.03 10.50L163.03 1.36ZM175.52 1.36L176.92 1.36L176.92 10.50L175.52 10.50L175.52 1.36ZM184.31 2.24L183.79 3.46Q183.30 3.09 182.71 2.88Q182.11 2.67 181.55 2.67L181.55 2.67Q180.89 2.67 180.49 2.94Q180.10 3.21 180.10 3.79L180.10 3.79Q180.10 4.10 180.24 4.32Q180.39 4.54 180.63 4.70Q180.88 4.86 181.20 4.98Q181.52 5.10 181.89 5.22L181.89 5.22Q182.36 5.39 182.85 5.58Q183.34 5.77 183.74 6.08Q184.14 6.38 184.39 6.85Q184.63 7.32 184.63 8.02L184.63 8.02Q184.63 8.71 184.37 9.21Q184.10 9.70 183.67 10.03Q183.23 10.36 182.66 10.51Q182.10 10.67 181.50 10.67L181.50 10.67Q180.60 10.67 179.75 10.32Q178.89 9.98 178.28 9.34L178.28 9.34L178.81 8.18Q179.35 8.75 180.10 9.06Q180.84 9.37 181.55 9.37L181.55 9.37Q182.24 9.37 182.69 9.09Q183.13 8.81 183.15 8.18L183.15 8.18Q183.15 7.84 182.99 7.59Q182.84 7.35 182.57 7.17Q182.31 7 181.96 6.87Q181.62 6.73 181.27 6.61L181.27 6.61Q180.81 6.45 180.34 6.26Q179.87 6.06 179.49 5.76Q179.12 5.46 178.88 5.01Q178.65 4.56 178.65 3.91L178.65 3.91Q178.65 3.23 178.91 2.75Q179.16 2.27 179.57 1.96Q179.98 1.65 180.52 1.50Q181.05 1.36 181.62 1.36L181.62 1.36Q182.38 1.36 183.08 1.60Q183.78 1.83 184.31 2.24L184.31 2.24ZM191.66 2.24L191.14 3.46Q190.65 3.09 190.06 2.88Q189.46 2.67 188.90 2.67L188.90 2.67Q188.24 2.67 187.84 2.94Q187.45 3.21 187.45 3.79L187.45 3.79Q187.45 4.10 187.59 4.32Q187.74 4.54 187.98 4.70Q188.23 4.86 188.55 4.98Q188.87 5.10 189.24 5.22L189.24 5.22Q189.71 5.39 190.20 5.58Q190.69 5.77 191.09 6.08Q191.49 6.38 191.74 6.85Q191.98 7.32 191.98 8.02L191.98 8.02Q191.98 8.71 191.72 9.21Q191.45 9.70 191.02 10.03Q190.58 10.36 190.01 10.51Q189.45 10.67 188.85 10.67L188.85 10.67Q187.95 10.67 187.10 10.32Q186.24 9.98 185.63 9.34L185.63 9.34L186.16 8.18Q186.70 8.75 187.45 9.06Q188.19 9.37 188.90 9.37L188.90 9.37Q189.59 9.37 190.04 9.09Q190.48 8.81 190.50 8.18L190.50 8.18Q190.50 7.84 190.34 7.59Q190.19 7.35 189.92 7.17Q189.66 7 189.31 6.87Q188.97 6.73 188.62 6.61L188.62 6.61Q188.16 6.45 187.69 6.26Q187.22 6.06 186.84 5.76Q186.47 5.46 186.23 5.01Q186.00 4.56 186.00 3.91L186.00 3.91Q186.00 3.23 186.26 2.75Q186.51 2.27 186.92 1.96Q187.33 1.65 187.87 1.50Q188.40 1.36 188.97 1.36L188.97 1.36Q189.73 1.36 190.43 1.60Q191.13 1.83 191.66 2.24L191.66 2.24ZM194.11 1.36L195.51 1.36L195.51 10.50L194.11 10.50L194.11 1.36ZM205.11 1.36L205.11 10.50L203.35 10.50L199.39 3.11L199.39 10.50L197.99 10.50L197.99 1.36L199.92 1.36L203.71 8.55L203.71 1.36L205.11 1.36ZM211.53 6.64L211.53 5.50L214.72 5.50L214.70 10.23Q214.07 10.40 213.26 10.54Q212.45 10.68 211.60 10.67Q210.76 10.65 209.94 10.44Q209.13 10.22 208.49 9.69Q207.86 9.16 207.47 8.25Q207.09 7.34 207.09 5.94L207.09 5.94Q207.09 4.54 207.47 3.62Q207.86 2.70 208.49 2.16Q209.13 1.61 209.94 1.39Q210.76 1.18 211.60 1.19Q212.44 1.20 213.24 1.40Q214.05 1.60 214.68 1.86L214.68 1.86L214.68 3.14Q214.17 2.93 213.53 2.74Q212.90 2.56 212.22 2.51Q211.54 2.45 210.89 2.56Q210.24 2.67 209.73 3.05Q209.23 3.43 208.91 4.13Q208.60 4.83 208.60 5.94L208.60 5.94Q208.60 6.90 208.81 7.57Q209.02 8.23 209.40 8.64Q209.79 9.04 210.32 9.23Q210.85 9.41 211.50 9.41L211.50 9.41Q212.45 9.41 212.90 9.37L212.90 9.37Q213.15 9.34 213.32 9.31L213.32 9.31L213.32 6.64L211.53 6.64Z"></path></g></svg>